<svg xmlns="http://www.w3.org/2000/svg" width="107" height="18">
  <defs>
    <linearGradient id="linearGradient-1" x1="3.16454112%" x2="98.156736%" y1="32.9104173%" y2="67.4944621%">
      <stop offset="0%" stop-color="#B52A72"/>
      <stop offset="31%" stop-color="#CE3C4B"/>
      <stop offset="68%" stop-color="#E55A26"/>
      <stop offset="100%" stop-color="#F5891F"/>
    </linearGradient>
  </defs>
  <g id="Page-1" fill="none" fill-rule="evenodd" stroke="none" stroke-width="1">
    <g id="Home" fill-rule="nonzero" transform="translate(-32 -32)">
      <g id="Group-6">
        <g id="MB_LOGO_Lockups_2016_MB-logo-B2C-Radiance-Horizontal" transform="translate(32 32)">
          <path id="Shape" fill="url(#linearGradient-1)" d="M17.12 11.29a4.43999847 4.43999847 0 01-.11.64 8.79999772 8.79999772 0 01-.61 1.6v.09c0-.15.07-.26.09-.34a6.7300035 6.7300035 0 00.36-1 9.21999302 9.21999302 0 00.27-.99zm-.76-1.74v.28-.07c.01-.07.01-.15.01-.22l-.01.01zM8.87 2.86a6.39000079 6.39000079 0 011 .08c.9008807.13490703 1.7649976.45129628 2.54.93-.5340675-.37397736-1.1203776-.66713238-1.74-.87-.5856021-.16065182-1.19588449-.21150869-1.8-.15v.01zM7.2 3.1a14.11999903 14.11999903 0 011.67-.24 6.4199996 6.4199996 0 00-1.53.18l-.14.06zM11 3c-.477987-.15591725-.9772357-.2368765-1.48-.24.9477711.09341455 1.8665126.37924524 2.7.84A6.70999863 6.70999863 0 0011 3zm2 13.56c-.19.11-.39.22-.6.32a4.29999504 4.29999504 0 00.54-.32H13zm3.5-3.3c.14-.72-.32.65 0 0zM9.73.26a8.68999996 8.68999996 0 011.39 0A8.42000057 8.42000057 0 0010 .15a10 10 0 00-2 0 9.41999998 9.41999998 0 011.67.16l.06-.05zM17 5.66c-.06-.21-.17-.41-.25-.61-.6680707-1.32759477-1.7112057-2.42984083-3-3.17l.25.18a8.61999905 8.61999905 0 01.83.69A8.99999997 8.99999997 0 0014 2.1l.16.14a7.55999765 7.55999765 0 011.15 1.17L15 3l.28.36c.6715608.74271129 1.2277644 1.5820732 1.65 2.49.32.74.4.91.44.79.0064087-.28490612-.0481428-.56789214-.16-.83a9.71001216 9.71001216 0 00-.48-1c.08.28.18.56.27.85zM10.21.47c.9816778.05795061 1.9427791.30586722 2.83.73C11.9947732.678012 10.8479003.3912938 9.68.36c.21.04.37.08.53.1v.01zM9.54.33h.11-.25.14zm1.79 15.13c.7977998-.3176212 1.5101463-.8176336 2.08-1.46a6.99999777 6.99999777 0 01-1.07.89h-.08.08a5.5399992 5.5399992 0 01-.92.54l-.09.03zm3.3-9.25c-.4114534-.741193-.9654115-1.39370811-1.63-1.92-.19-.15-.4-.29-.6-.42.8154433.54982956 1.4985638 1.27393734 2 2.12.8428616 1.40110841 1.1451223 3.06176389.85 4.67 0 .18-.07.37-.13.54a5.9999892 5.9999892 0 00.18-.66c.1063912-.81654906.1063912-1.64345094 0-2.46 0-.23-.05-.45-.08-.67a6.67999092 6.67999092 0 00-.22-.66c-.5099652-1.30531784-1.4524657-2.39607682-2.67-3.09l-.13-.06c1.0301201.63420506 1.8724106 1.53172768 2.44 2.6l-.01.01zm.49 0c-.07-.13-.15-.26-.23-.39 0 .08.08.17.12.25.04.08.19.4.26.6-.04-.16-.09-.31-.14-.47l-.01.01zm.41 1.71a8.1600088 8.1600088 0 00-.23-1.14c-.05-.14-.11-.28-.18-.42a7.59000194 7.59000194 0 01.38 1.45l.03.11zm-2.92 6.32c-.12.06-.25.14-.37.19 1.0089679-.4158853 1.8793056-1.1093815 2.51-2-.411435.7842262-.9679453 1.4832575-1.64 2.06-.21.2-.44.36-.58.49l-.27.31a5.5199948 5.5199948 0 00.89-.67 6.8499991 6.8499991 0 001-1c-.5183756.7440963-1.2031892 1.3570045-2 1.79l-.09.11c.8459645-.4344342 1.5892497-1.0447463 2.18-1.79l.08-.12c.4102276-.7369752.7037133-1.5330974.87-2.36-.4870326 1.2627348-1.3947573 2.3188036-2.57 2.99h-.01zm2.9-6.4c0 .19.05.39.07.58v-.47l-.07-.11zM5.87 1.25c.32-.11.61-.2.9-.29l-.49.12-.41.17zm3.64 1.51c-.5391415-.04494885-1.08198212-.00786036-1.61.11a11.79999886 11.79999886 0 011.61-.11zm7.89 8.38c-.1545189.7305159-.4067896 1.4368739-.75 2.1.4357653-.9815631.7028451-2.0295975.79-3.1.1328336-.95538403.0543191-1.92828093-.23-2.85-.06-.19-.12-.37-.18-.54.3561927 1.09250285.495469 2.24408084.41 3.39-.0794738.6339969-.226991 1.257592-.44 1.86a8.99999839 8.99999839 0 00.29-1.44 7.52001055 7.52001055 0 00.1-1v.27a6.67999157 6.67999157 0 01-.05.69c0 .27-.1.54-.18.8v-.12a1.13000025 1.13000025 0 000-.2c-.2990599 1.4874759-.9894552 2.8682665-2 4a8.60000552 8.60000552 0 001.11-1.56c-.4445017.8020182-1.0345749 1.5141755-1.74 2.1a5.45999834 5.45999834 0 00.69-.82c.954062-1.1090563 1.6233836-2.4339699 1.95-3.86 0-.23-.08-.44-.15-.22-.1589736.9282955-.4626694 1.8258855-.9 2.66a6.84999726 6.84999726 0 01-.81 1.24c-.06 0 .39-.57.71-1.23a7.35000614 7.35000614 0 00.53-1.3l-.21.46.09-.47a6.20999759 6.20999759 0 00.26-1 13.5900062 13.5900062 0 00.12-1.84 6.17001407 6.17001407 0 010 .67v.05c-.0755554 1.165189-.381457 2.3038226-.9 3.35-1.0465838 1.8801352-2.8233793 3.2443957-4.91 3.77h-.13c1.8763139-.5395053 3.4842584-1.7588335 4.51-3.42a8.509995 8.509995 0 00.48-1 8.00000422 8.00000422 0 00.44-1.35c0 .07 0 .13-.07.2l-.05.19a8.07000393 8.07000393 0 01-.32.95c-.9019936 2.0749199-2.6847924 3.63762-4.86 4.26 0 0 .1 0 .14-.06.9664275-.2993054 1.8497946-.8197387 2.58-1.52a7.6899998 7.6899998 0 01-1.34.92 5.9999949 5.9999949 0 01-1.13.54c.12-.09.19-.09.32-.18l.8-.5h.08c-.5181024.2510031-1.0657407.435789-1.63.55l.18-.18a5.99999953 5.99999953 0 001.09-.4h-.1.1a7.46999742 7.46999742 0 00.91-.41c.9138435-.6174972 1.6789694-1.4304435 2.24-2.38.6358061-1.0227956 1.0228386-2.1804681 1.13-3.38a8.5600034 8.5600034 0 01-.18 1.35 7.51000332 7.51000332 0 00.18-1.45v-.57c-.022189-.1062358-.0628018-.20776785-.12-.3.0501546 1.4009158-.2964915 2.7874999-1 4l.09-.17s.25-.58.41-1.2a6.90000525 6.90000525 0 00.25-1.25l-.1.44v-.12c-.0533333.2266667-.12.4566667-.2.69v.21c-.2392774.6909754-.5760103 1.3442372-1 1.94-.15.24-.3.47-.47.69a4.51000433 4.51000433 0 00.25-.39c-.6354292.8463853-1.4609809 1.5314905-2.41 2-.0234114-.0021663-.0446846-.0145214-.0581675-.0337827C11.9983495 15.646956 11.9940221 15.6227388 12 15.6c.8024849-.4226932 1.5182706-.9926079 2.11-1.68l-.11.21.2-.28c.41405-.4968408.7511421-1.0530427 1-1.65 0-.14.09-.27.13-.41-.2164128.587693-.5125126 1.1428801-.88 1.65.8464745-1.2944697 1.3426371-2.7864031 1.44-4.33a6.26999876 6.26999876 0 00-.06-1.1c0-.13 0-.26-.05-.39l-.05-.19v.24c-.2221081-1.04381741-.6691594-2.02664774-1.31-2.88l-.09-.13a7.22999859 7.22999859 0 01.73 1.43l-.2-.3v-.06a7.70001734 7.70001734 0 00-.4-.68 4.91000062 4.91000062 0 01.28.55c0-.06-.1-.15-.09-.09-.2211177-.41356359-.5320629-.77234656-.91-1.05l-.11-.1c-.5409078-.54725918-1.1967339-.96739777-1.92-1.23a7.99999385 7.99999385 0 00-.77-.31c.18.06.43.18.6.24l.17.07c.6288557.28299267 1.2146309.6533103 1.74 1.1l.19.14.1.11a5.47000845 5.47000845 0 01.55.59v.08c.18.23.34.46.48.68a6.52000188 6.52000188 0 01.27.92c-.4771669-1.23491569-1.3353222-2.28571821-2.45-3-.7702967-.48755126-1.6249938-.82671677-2.52-1-.88387714-.17273949-1.79760009-.11067529-2.65.18l.43-.06a4.11000023 4.11000023 0 00-.55.17c-1.62328369.4021409-3.02377091 1.42557387-3.9 2.85A6.46 6.46 0 003 7.25c.22435999-.6911077.56232227-1.33999529 1-1.92a5.189999 5.189999 0 00-.28.45 5.78999962 5.78999962 0 00-.32.7c.49425861-1.0897208 1.31562238-1.99846369 2.35-2.6a4.69000037 4.69000037 0 00-.4.28c-1.51593495 1.20440524-2.35751777 3.06631413-2.26 5a5.80000006 5.80000006 0 00.27 1.14c.30751875.9383508.8160026 1.7983369 1.49 2.52-.18-.18-.35-.36-.51-.56-.54230746-.66566-.94375639-1.4345368-1.18-2.26.32661808 1.1815236.96166636 2.2548933 1.84 3.11 0 0-.26-.14-.3-.17-.50342498-.4519684-.93504484-.9780051-1.28-1.56a6.51999876 6.51999876 0 00.8 1.28c-.15-.17-.29-.35-.43-.54-.35459766-.5340717-.62131295-1.1215206-.79-1.74v-.12c.22887746 1.0105019.69892497 1.9505969 1.37 2.74l-.1-.1c-.91587908-.953691-1.47708261-2.1925742-1.59-3.51-.08499512-1.02600299.08684149-2.05702262.5-3a6.20000019 6.20000019 0 00-.47 1.23 6.04999972 6.04999972 0 00-.12.93 5.68999964 5.68999964 0 000 1c.08919774 1.4019073.67818081 2.7253452 1.66 3.73.45336166.4880996.97960191.9030198 1.56 1.23a3.38000358 3.38000358 0 01.34.26l.25.14c.04680339-.0221311.07757262-.0682849.08-.12h.27c-.08-.19-.75-.43-.75-.53a4.39999862 4.39999862 0 01.95.41c.18363497.0802959.37995616.1276837.58.14v-.11c0-.03.21.09.33.1a5.27000117 5.27000117 0 011.09.35c.29181879.1375084.52811917.3702819.67.66.09122015.1080394.13132179.250218.11.39a1.77000009 1.77000009 0 010 .5.55999953.55999953 0 00-.05.16c-.01129742.1043295-.06124155.2006503-.14.27l-.14.12c.06 0 0 .09-.2.11-.06936606.0324243-.14377691.0527181-.22.06h-.93c-.18 0-.39-.08-.58-.08a3.9200046 3.9200046 0 01-.66-.14 4.68999766 4.68999766 0 01-.72-.26 1.35000062 1.35000062 0 01-.34-.21l-2.34-1C1.38057751 14.089776.21583125 11.6091613.25 9 .2313097 6.80985516.98953829 4.68398063 2.39 3c-.40550099.56769886-.74124571 1.18211169-1 1.83L1.36 5C1.93133713 3.69055045 2.84291015 2.55799003 4 1.72c-.80490091.59059122-1.484681 1.33495041-2 2.19a8.08000022 8.08000022 0 00-.39.76c.54286833-.98087393 1.29790489-1.82815477 2.21-2.48L4.14 2c-1.23888143.89672219-2.16004612 2.16463708-2.63 3.62l-.05.17c.48820302-1.34312886 1.3272824-2.53096138 2.43-3.44-.75525142.64286165-1.37700029 1.42769219-1.83 2.31a8.15999765 8.15999765 0 00-.34.79c.45423053-1.06240453 1.13710436-2.01159914 2-2.78.55411676-.52257989 1.18470177-.95758239 1.87-1.29l.66-.19C7.03195159.93167176 7.84692033.78686327 8.67.76A8.70999996 8.70999996 0 006.8.95l.4-.11h-.31c.65088075-.18890806 1.32267084-.29639447 2-.32h.66C7.75342592.31948545 5.94309985.75085221 4.43 1.74l-.2.13-.35.23C5.12949862 1.04899633 6.66587159.39751845 8.29.23a8.33000015 8.33000015 0 011 0h-.37.56l.65.11h-.79c.7187192-.00123563 1.4323505.12052138 2.11.36C10.5999346.5140521 9.72584837.46342935 8.86.55h-.37.92A7.7400004 7.7400004 0 0111 1 8.3799989 8.3799989 0 009.89.78c.9750607.0962568 1.9241441.37081309 2.8.81-.7411927-.35471612-1.5346932-.58770139-2.35-.69h-.1L9.66.83h.31-.43a8.20999993 8.20999993 0 00-.87-.05 9 9 0 00-2 .32A7.70999993 7.70999993 0 017.91.9 10.89000009 10.89000009 0 019 .83h-.07a5.52000006 5.52000006 0 011.15.11 8.68000005 8.68000005 0 00-1.39 0c.09 0 .1-.06 0-.11-.97134177.0568742-1.92865856.25912422-2.84.6l-.16.07c.8331472-.29644034 1.70637826-.46501777 2.59-.5h.25c1.33329777-.04539047 2.6567796.2433692 3.85.84-.8964652-.42790221-1.8681207-.67591219-2.86-.73a8.30999806 8.30999806 0 00-.86 0c1.12385294.0238652 2.2278751.30072526 3.23.81 1.3442897.54433549 2.5231667 1.43021673 3.42 2.57l-.08-.08a7.99999396 7.99999396 0 01.66 1l.11.26a6.5600098 6.5600098 0 01.25.61c0-.13-.09-.26-.13-.39.3832135.92375663.6356477 1.89646969.75 2.89H17v-.11a9.76000664 9.76000664 0 00-.08-1.06v.06-.1a4.47000511 4.47000511 0 00-.17-.71l-.09-.25v.1a7.81998603 7.81998603 0 01.24.85c-.04-.16-.09-.32666667-.15-.5 0 .11 0 .23.06.34 0-.13-.08-.26-.12-.38-.04-.12-.13-.48-.21-.71a8.63999601 8.63999601 0 00-.61-1.24 8.67998782 8.67998782 0 01.44.79c-.06-.16-.13-.31-.2-.46-.07-.15-.29-.4-.42-.6-.3059427-.59902009-.681906-1.1596083-1.12-1.67.7263651.63231893 1.3181037 1.40429969 1.74 2.27.08.2.19.4.25.61-.2874088-.9142738-.7159103-1.7780249-1.27-2.56A9.0000035 9.0000035 0 0116.38 5c-.13-.22-.27-.44-.4-.64l.19.32c1.2308977 1.91289485 1.6684833 4.2299465 1.22 6.46h.01zM.54 9.63a.84000015.84000015 0 010-.12 1.25999995 1.25999995 0 000 .12zm.57-3.53a13.22000014 13.22000014 0 00-.49 1.6A5.00000003 5.00000003 0 00.5 8.94c-.01309534.04234398-.01309534.08765602 0 .13v-.1.07a8.31999997 8.31999997 0 01.23-1.72v-.21a7.57000005 7.57000005 0 01.38-1.01zm3.18 8c.38411734.365504.82267892.6691236 1.3.9h.07c-.49271111-.2572582-.95268275-.5728592-1.37-.94v.04zm-.29.84a5.44000803 5.44000803 0 01.48.27L4.25 15 4 14.94zm-1-6.9a5.89000095 5.89000095 0 01.11-.63c0 .15-.07.3-.09.44L3 8.04zm0-4.66a8.35999792 8.35999792 0 01.85-.72l.13-.1c.64382708-.47682665 1.35944584-.84813827 2.12-1.1a8.23000042 8.23000042 0 01.9-.23c-1.00872347.20249978-1.96934901.59625442-2.83 1.16l.11-.08-.28.15-.28.2-.24.22a4.65999989 4.65999989 0 00-.44.48L3 3.38zm3.32-.57c-.78635773.35710881-1.50918565.84011999-2.14 1.43a7.73000009 7.73000009 0 00-.58.7 5.82000029 5.82000029 0 00-.57.92l.17-.21a7.38000034 7.38000034 0 00-.65 1.46c.01981137.05836462.01981137.12163538 0 .18-.23769556.79027505-.30249653 1.6224559-.19 2.44 0 .09.07.25.11.42.04.17.09.41.15.61 0-.17-.08-.33-.12-.5-.12632911-.53692456-.17349437-1.08943197-.14-1.64.07822487-1.27059494.51895798-2.49215443 1.27-3.52a6.37999936 6.37999936 0 01.5-.64C4.68228154 3.88860234 5.3117012 3.39718378 6 3c.1 0 .27-.12.35-.18l-.03-.01zm2.99-1.69c-1.61120795-.17577049-3.23348404.21301028-4.59 1.1-1.24407034.81237134-2.17227081 2.02644342-2.63 3.44v.15c.43966048-1.20516377 1.19206471-2.27164499 2.18-3.09-.67734673.57949243-1.23451995 1.28615115-1.64 2.08a7.41000268 7.41000268 0 00-.3.71c1.11218711-2.5940884 3.62876745-4.3069237 6.45-4.39.16.04.36.02.55.05l-.02-.05zm4.71 3c.24.24.48.48.7.74.22.26.36.46.52.7a9.79999445 9.79999445 0 00-.94-1.23 10.72000493 10.72000493 0 011 1.24V5.5c-.7767027-1.18323266-1.844087-2.1473217-3.1-2.8.7867391.43789572 1.4961878 1.00207637 2.1 1.67a11.17000272 11.17000272 0 00-1.09-1 3.8099989 3.8099989 0 00-.6-.37A9.66000282 9.66000282 0 0114 4.18c-.5520859-.51641252-1.162941-.96616297-1.82-1.34.8980416.52696227 1.6995505 1.20334109 2.37 2a6.38000539 6.38000539 0 01.53.73l-.06-.1A9.88999764 9.88999764 0 0014 4.18l.02-.06zm1.5 2.5c0-.12-.07-.23-.11-.35a7.28999205 7.28999205 0 00-.41-.82c.05.09.1.18.15.28l.12.27c.1.26.19.47.28.67l-.03-.05zm.57 4.81a.90002316.90002316 0 010-.09 7.8399982 7.8399982 0 01-.6 1.64 7.32999642 7.32999642 0 00.63-1.49l-.03-.06zm.07.1A3.00000286 3.00000286 0 0116 12a3.10999863 3.10999863 0 00.14-.36.21999948.21999948 0 01.04-.06l-.02-.05zm-.01-4.76a5.4400008 5.4400008 0 00-.25-.59c.1.26.2.46.27.65l-.02-.06zm.32 3v.19c0 .25 0 .5-.08.74 0-.08 0-.17.05-.25.05-.08.04-.45.05-.64l-.02-.04zM16.8 9a5.18998786 5.18998786 0 00-.06-.55c-.1158365-.6165599-.3037946-1.21735438-.56-1.79-.007784-.01924261-.007784-.04075739 0-.06.07.2.14.41.21.62 0-.19-.1-.38-.17-.57.3907017.97283747.5909936 2.01163958.59 3.06A6.90000396 6.90000396 0 0016.8 9zm.4-1.35c0 .23.07.45.09.68.02.23.06.57.07.85v-.8c0-.29 0-.31-.08-.46l-.08-.27z"/>
          <path id="Shape" fill="#696C74" d="M61.57 3.44h4.52c1.75 0 3.55.8 3.55 2.91.0122103 1.21116994-.8197576 2.2677692-2 2.54 1.441402.13084859 2.5369027 1.3529211 2.51 2.8 0 2.52-2.2 3.31-4.39 3.31h-4.19V3.44zm2.06 4.72h1.88c1.37 0 2.06-.59 2.06-1.46s-.69-1.49-2.24-1.49h-1.7v2.95zm0 5.11h1.9c1.07 0 2.54-.18 2.54-1.7 0-1.21-.79-1.64-2.46-1.64h-2v3.34h.02zM77 3.15c1.6527616-.12060171 3.2773961.47647854 4.4587163 1.6386525C82.6400364 5.95082645 83.2635815 7.56548856 83.17 9.22c.0574431 1.6479552-.5762089 3.2449733-1.74788 4.4052505C80.2504489 14.7855276 78.6473152 15.4035438 77 15.33c-1.62745.0879124-3.2169932-.5117862-4.3808054-1.6527785C71.4553825 12.5362292 70.8243284 10.9588716 70.88 9.33c-.1019162-1.65761171.5079395-3.28001294 1.676519-4.46004912C73.7250985 3.6899147 75.3414729 3.06426006 77 3.15zm0 10.32c1.1168276.0033594 2.1842013-.4603498 2.9439327-1.2789604C80.7036641 11.372429 81.0865596 10.2734732 81 9.16c0-2.209139-1.790861-4-4-4s-4 1.790861-4 4c-.0873712 1.1222259.3021405 2.2293267 1.0729488 3.0496189C74.843757 13.0299111 75.9245136 13.4874663 77.05 13.47H77zM84.52 3.44h4.57c3 0 5.9 1.87 5.9 5.8 0 3.93-3.36 5.8-6.14 5.8h-4.32V3.44h-.01zm3.6 9.73c2.59 0 4.7-1.12 4.7-3.93s-1.84-3.93-4.36-3.93h-1.88v7.86h1.54z"/>
          <path id="Path" fill="#696C74" d="M98.8 10.08l-4.36-6.63H97l2.85 4.62 2.88-4.62h2.46l-4.36 6.63v5H98.8zM21 3.44h2l4 9.09 4-9.09h2V15h-1.4V5.31L27.41 15h-.83l-4.16-9.73V15H21zM34.88 3.44h1.38V15h-1.38zM38.16 3.44h1.74l6.72 9.63V3.44H48V15h-1.72l-6.72-9.63V15h-1.4z"/>
          <path id="Shape" fill="#696C74" d="M50 3.44h4.45c1.5378611-.03465033 3.0213566.56936629 4.0976361 1.668384C59.6239155 6.20740171 60.1967897 7.70319928 60.13 9.24c.0550973 1.5246955-.5187656 3.0050425-1.5871416 4.0942187C57.4744824 14.423395 56.0054744 15.0256916 54.48 15H50V3.44zm1.4 10.32H54c2.65 0 4.67-1.34 4.67-4.52 0-3.18-2-4.52-4.67-4.52h-2.6v9.04zM102.85 13.54c.086733-.2025192.212453-.3860016.37-.54.155525-.1531797.338786-.2753542.54-.36.858855-.3620742 1.849104.0349173 2.22.89.09356.2109076.141279.4392752.140034.67.00145.2339713-.046247.4656435-.140034.68-.087628.2020259-.213236.3853452-.37.54-.154392.1545657-.337942.2769324-.54.36-.42354.1702055-.89646.1702055-1.32 0-.20181-.0835329-.385274-.2058421-.54-.36-.157151-.1543308-.282814-.3377302-.37-.54-.093787-.2143565-.141484-.4460287-.140034-.68.003304-.2280719.054406-.4529185.150034-.66zm.28 1.25c.065903.1706977.164402.3269361.29.46.12455.1316139.274146.237011.44.31.176963.0752859.367708.1127537.56.11.189013.002243.37639-.0352324.55-.11.165722-.0732226.315274-.178589.44-.31.125397-.1332197.223869-.2894165.29-.46.073726-.1844307.111079-.3813821.110023-.58.000777-.1953502-.036589-.3889756-.110023-.57-.135564-.3418039-.401932-.6153715-.74-.76-.17361-.0747676-.360987-.112243-.55-.11-.571721-.0073139-1.088741.3386918-1.3.87-.073434.1810244-.1108.3746498-.110013.57.006553.1965579.050681.3900439.130013.57v.01zm1.4-1.56c.184227-.0140044.367706.0353938.52.14.120781.1088697.183681.2679707.17.43.012176.1460846-.043071.2897251-.15.39-.105224.0864389-.234289.1387625-.37.15l.57.88h-.33l-.54-.85h-.33v.83h-.31v-2h.77v.03zm-.14.88h.37c.049304-.0202456.091195-.0551548.12-.1.01668-.0588408.01668-.1211592 0-.18.015004-.0522781.015004-.1077219 0-.16-.02486-.0382539-.059348-.0692931-.1-.09H104.08v.52h.32l-.01.01z"/>
        </g>
      </g>
    </g>
  </g>
</svg>