<svg enable-background="new 0 0 104.9 17.5" viewBox="0 0 104.9 17.5" xmlns="http://www.w3.org/2000/svg" xmlns:xlink="http://www.w3.org/1999/xlink"><linearGradient id="a" gradientUnits="userSpaceOnUse" x1=".4555" x2="16.9155" y1="5.8111" y2="11.8011"><stop offset="0" stop-color="#b52a72"/><stop offset=".31" stop-color="#ce3c4b"/><stop offset=".68" stop-color="#e55a26"/><stop offset="1" stop-color="#f5891f"/></linearGradient><path d="m16.8 11.3c0 .2-.1.4-.1.6-.2.6-.4 1.1-.6 1.6v.1c0-.1.1-.3.1-.3.1-.3.3-.7.4-1 0-.3.1-.7.2-1zm-.8-1.7v.3c0-.2 0-.2 0-.3zm-7.5-6.7c.3 0 .7 0 1 .1.9.1 1.8.5 2.5.9-.5-.4-1.1-.7-1.8-.9-.5-.1-1.1-.2-1.7-.1zm-1.6.2c.6-.1 1.1-.2 1.7-.2-.5 0-1 .1-1.5.2zm3.7 0c-.5-.2-1-.2-1.5-.2.9.1 1.9.4 2.7.8-.3-.3-.7-.5-1.2-.6zm2 13.5c-.2.1-.4.2-.6.3.2-.1.4-.2.6-.3zm-3.3-16.3h1.4c-.4-.1-.7-.1-1.1-.2-.7-.1-1.3-.1-2 0 .6 0 1.2.1 1.7.2zm7.4 5.4c-.1-.2-.2-.4-.2-.6-.7-1.3-1.7-2.4-3-3.2l.2.2c.3.2.6.4.8.7-.2-.2-.5-.4-.8-.6l.2.1c.4.3.8.7 1.1 1.2l-.4-.4.3.4c.7.7 1.2 1.6 1.7 2.5.3.7.4.9.4.8 0-.3 0-.6-.2-.8-.1-.3-.3-.7-.5-1 .2.1.3.4.4.7zm-6.8-5.2c1 .1 1.9.3 2.8.7-1-.5-2.2-.8-3.4-.8.3 0 .4.1.6.1zm-.7-.2h.1-.2zm1.8 15.2c.8-.3 1.5-.8 2.1-1.5-.3.3-.7.6-1.1.9 0 0 0 0-.1 0h.1c-.3.2-.6.4-.9.5zm3.3-9.2c-.4-.8-.9-1.4-1.6-2-.2-.1-.4-.3-.6-.4.8.5 1.5 1.3 2 2.1.8 1.4 1.1 3.1.8 4.7 0 .2-.1.4-.1.5.1-.2.1-.4.2-.7.1-.8.1-1.6 0-2.5 0-.2 0-.5-.1-.7s-.1-.4-.2-.6c-.5-1.3-1.5-2.4-2.7-3.1l-.1-.1c1 .8 1.9 1.7 2.4 2.8zm.5 0c-.1-.1-.2-.3-.2-.4 0 .1.1.2.1.2s.2.4.3.6c-.1-.1-.2-.3-.2-.4zm.4 1.7c0-.4-.1-.8-.2-1.1 0-.1-.1-.3-.2-.4.2.5.3 1 .4 1.5zm-2.9 6.3c-.1.1-.2.1-.4.2 1-.4 1.9-1.1 2.5-2-.4.8-1 1.5-1.6 2.1-.2.2-.4.4-.6.5l-.3.2c.3-.2.6-.4.9-.7.4-.3.7-.6 1-1-.5.7-1.2 1.4-2 1.8l-.1.1c.8-.4 1.6-1 2.2-1.8l.1-.1c.4-.7.7-1.5.9-2.4-.5 1.4-1.4 2.4-2.6 3.1zm2.9-6.4c0 .2 0 .4.1.6 0-.2 0-.3 0-.5zm-9.7-6.6.9-.3-.5.1zm3.7 1.5c-.5 0-1.1 0-1.6.1.5-.1 1-.1 1.6-.1zm7.9 8.4c-.2.7-.4 1.4-.8 2.1.4-1 .7-2 .8-3.1.1-1 0-2-.3-2.9-.1-.2-.1-.4-.2-.5.4 1.1.5 2.3.4 3.4-.1.6-.2 1.2-.4 1.8.1-.5.2-1 .3-1.4.1-.3.1-.7.1-1v.3.7c0 .3-.1.5-.2.8v-.1c0-.1 0-.1 0-.2-.3 1.5-1 2.9-2 4 .4-.5.8-1 1.1-1.6-.4.8-1 1.5-1.7 2.1.3-.3.5-.5.7-.8 1-1.1 1.6-2.4 2-3.9 0-.2-.1-.4-.2-.2-.2.9-.5 1.8-.9 2.7-.2.4-.5.9-.8 1.2-.1 0 .4-.6.7-1.2.2-.4.4-.9.5-1.3l-.2.5.1-.4c.1-.3.2-.7.3-1 .1-.6.1-1.2.1-1.8v.7c-.1 1-.4 2.2-.9 3.2-1 1.8-2.8 3.2-4.8 3.7-.1 0-.2 0-.1 0 1.9-.6 3.4-1.8 4.5-3.4.2-.3.3-.7.5-1 .2-.4.3-.9.4-1.3 0 .1 0 .1-.1.2v.2c-.1.3-.2.6-.3 1-.9 2.1-2.7 3.7-4.9 4.3 0 0 .1 0 .1-.1 1-.3 1.9-.8 2.6-1.6-.4.4-.9.7-1.3.9-.4.2-.7.4-1.1.5.1-.1.2-.1.3-.2l.8-.5h-.1c-.5.3-1.1.4-1.6.5l.1-.1c.4-.1.8-.2 1.1-.4h-.1.1c.3-.1.6-.3.9-.5.9-.6 1.7-1.4 2.2-2.4.6-1 1-2.2 1.1-3.4 0 .5-.1.9-.2 1.4.1-.5.2-1 .2-1.5 0-.2 0-.4 0-.6 0-.1-.1-.2-.1-.3.1 1.4-.3 2.8-1 4l.1-.2s.2-.6.4-1.2c.1-.4.2-.8.3-1.3l-.1.4v-.1c-.1.2-.1.5-.2.7v.2c-.2.7-.6 1.3-1 1.9-.2.2-.3.5-.5.7.1-.1.2-.3.2-.4-.6.8-1.5 1.5-2.4 2-.1 0-.1-.1-.1-.1.8-.4 1.5-1 2.1-1.7l-.1.2.2-.3c.4-.5.8-1.1 1-1.6 0-.1.1-.3.1-.4-.2.6-.5 1.1-.9 1.7.8-1.3 1.3-2.8 1.4-4.3 0-.4 0-.7-.1-1.1 0-.1 0-.3 0-.4v-.2.2c-.2-1-.7-2-1.3-2.9l-.1-.1c.3.4.5.9.7 1.4l-.2-.3v-.1c-.1-.2-.3-.5-.4-.7.1.2.2.4.3.5 0-.1-.1-.1-.1-.1-.2-.4-.5-.8-.9-1l-.1-.1c-.5-.5-1.2-1-1.9-1.2-.3-.1-.5-.2-.8-.3.2.1.4.2.6.2l.2.1c.6.3 1.2.6 1.7 1.1l.2.1.1.1c.2.2.4.4.5.6v.1c.2.2.3.5.5.7.1.3.2.6.3.9-.5-1.2-1.3-2.3-2.5-3-.8-.5-1.6-.8-2.5-1s-1.8-.1-2.6.2l.4-.1c-.2 0-.4.1-.5.2-1.6.4-3 1.5-3.9 2.9-.2.4-.4.9-.5 1.4.2-.7.6-1.3 1-1.9-.1.1-.2.3-.3.5s-.2.5-.3.7c.5-1.1 1.3-2 2.4-2.6-.1.1-.3.2-.4.3-1.5 1.2-2.4 3.1-2.3 5 .1.4.2.7.3 1.1.3.9.8 1.8 1.5 2.5-.2-.2-.4-.4-.5-.6-.5-.7-.9-1.4-1.2-2.2.3 1.2 1 2.3 1.8 3.1 0 0-.3-.1-.3-.2-.5-.4-.9-1-1.3-1.5.2.5.5.9.8 1.3-.1-.2-.3-.4-.4-.5-.4-.5-.6-1.1-.8-1.8v.1c.3 1 .7 1.9 1.4 2.7l-.1-.1c-.9-1-1.5-2.2-1.6-3.5-.1-1 .1-2.1.5-3-.2.4-.4.8-.5 1.2-.1.3-.1.6-.1.9s0 .7 0 1c.1 1.4.6 2.7 1.6 3.7.5.5 1 .9 1.6 1.2.2.1.2.2.3.3l.2.1.1-.1h.3c-.1-.1-.7-.4-.7-.5.3.1.7.2 1 .4.2.1.4.1.6.1v-.1s.2.1.3.1 0 0 0 0c.4.1.7.2 1.1.4.3.1.5.4.7.7.1.1.1.3.1.4-.1.3.1.3 0 .5v.2c0 .1-.1.2-.1.3v.1c.1 0 0 .1-.2.1-.1 0-.1.1-.2.1-.2 0-.8 0-.9 0s-.4-.1-.6-.1-.4-.1-.7-.1c-.2-.1-.5-.2-.7-.3-.1-.1-.2-.1-.3-.2l-2.3-1c-2-1.6-3.2-4.1-3.2-6.7 0-2.2.7-4.3 2.1-6-.4.6-.7 1.2-1 1.8l-.1.2c.6-1.3 1.5-2.4 2.6-3.3-.8.6-1.5 1.3-2 2.2-.1.2-.3.5-.4.8.5-1 1.3-1.8 2.2-2.5l.3-.2c-1.2.9-2.2 2.2-2.6 3.6v.2c.5-1.3 1.3-2.5 2.4-3.4-.8.6-1.4 1.4-1.8 2.3-.1.3-.2.5-.3.8.5-1.1 1.1-2 2-2.8.6-.5 1.2-1 1.9-1.3l.7-.2c.8-.3 1.6-.4 2.4-.4-.6 0-1.3.1-1.9.2l.4-.1h-.3c.7-.2 1.3-.3 2-.3h.7c-1.8-.2-3.5.2-5 1.2l-.2.1-.4.2c1.2-1.1 2.8-1.7 4.4-1.9h1-.2-.2.4l.6.1c-.3 0-.5 0-.8 0 .7 0 1.4.1 2.1.4-.9-.2-1.7-.2-2.6-.1h-.2-.2.5.6c.5 0 1 .1 1.5.2-.4-.1-.7-.2-1.1-.2 1 .1 1.9.4 2.8.8-.7-.4-1.5-.6-2.4-.7l-.6-.1h.3-.4c-.3 0-.6 0-.9-.1-.7 0-1.3.1-2 .3.4-.1.8-.2 1.2-.2s.7-.1 1.1-.1h-.1c.4 0 .8 0 1.1.1-.5 0-.9 0-1.4 0 .1 0 .1-.1 0-.1-1 .1-1.9.3-2.8.6l-.2.1c.8-.3 1.7-.5 2.6-.5h.2c1.3 0 2.7.2 3.9.8-.9-.4-1.9-.7-2.9-.7-.3 0-.6 0-.9 0 1.1 0 2.2.3 3.2.8 1.3.5 2.5 1.4 3.4 2.6h.2c.2.3.5.7.7 1l.2.3c.1.2.2.4.2.6 0-.1-.1-.3-.1-.4.4.9.6 1.9.8 2.9v-.1c0-.4 0-.7-.1-1.1v.1-.1c0-.2-.1-.5-.2-.7l-.1-.2v.1c.1.3.2.6.2.9 0-.2-.1-.3-.2-.5 0 .1 0 .2.1.3 0-.1-.1-.3-.1-.4s-.1-.5-.2-.7c-.2-.4-.4-.8-.6-1.2.2.3.3.5.4.8-.1-.2-.1-.3-.2-.5s-.2-.4-.4-.6c-.3-.6-.7-1.2-1.1-1.7.7.6 1.3 1.4 1.7 2.3.1.2.2.4.2.6-.3-.9-.7-1.8-1.3-2.6.4.5.8 1 1.1 1.6-.1-.2-.3-.4-.4-.6l.2.3c1.4 1.8 1.9 4.2 1.4 6.5zm-16.9-1.5v-.1zm.6-3.6c-.2.5-.4 1.1-.5 1.6-.1.4-.1.8-.1 1.2v.1-.1.1c0-.6.1-1.2.2-1.7 0-.1 0-.1 0-.2.1-.3.2-.6.4-1zm3.2 8c.4.4.8.7 1.3.9h.1c-.6-.2-1-.5-1.4-.9zm-.3.9c.2.1.3.2.5.3l-.3-.2zm-1-6.9c0-.2.1-.4.1-.6 0 .1-.1.3-.1.4zm0-4.6c.3-.3.6-.5.9-.7l.1-.1c.6-.5 1.4-.8 2.1-1.1.3-.1.5-.2.8-.2-1 .2-2 .6-2.8 1.2l.1-.1-.2.1-.3.2-.2.2c-.2.1-.3.3-.5.5zm3.3-.6c-.8.3-1.5.8-2.1 1.4-.2.2-.4.5-.6.7-.2.3-.4.6-.6.9l.2-.2c-.3.5-.5 1-.6 1.5v.2c-.2.8-.3 1.6-.2 2.4 0 .1.1.2.1.4s.1.4.1.6c0-.2-.1-.3-.1-.5-.1-.5-.2-1.1-.1-1.6.1-1.3.5-2.5 1.3-3.5.2-.2.3-.4.5-.6.6-.6 1.2-1 1.9-1.4 0-.2.1-.3.2-.3zm3-1.7c-1.6-.2-3.2.2-4.6 1.1-1.2.8-2.2 2-2.6 3.4v.1c.4-1.2 1.2-2.3 2.2-3.1-.7.6-1.2 1.3-1.6 2.1-.1.2-.2.5-.3.7 1.1-2.6 3.6-4.3 6.5-4.4 0 .1.2.1.4.1zm4.7 3c.2.2.5.5.7.7s.4.5.5.7c-.3-.4-.6-.8-.9-1.2.4.4.7.8 1 1.2v-.1c-.8-1.2-1.8-2.2-3.1-2.9.8.4 1.5 1 2.1 1.7-.3-.4-.7-.7-1.1-1-.2-.2-.4-.3-.6-.4.5.4 1 .8 1.4 1.3-.6-.5-1.2-1-1.8-1.4.9.5 1.7 1.2 2.4 2 .2.2.4.5.5.7l-.1-.1c-.3-.4-.6-.8-1-1.2zm1.5 2.5c0-.1-.1-.2-.1-.4-.1-.3-.3-.6-.5-.9 0 .1.1.2.2.3l.2.3c0 .3.1.5.2.7zm.6 4.8c-.1.5-.3 1-.6 1.5.2-.4.4-.9.6-1.5zm.1.1c0 .1-.1.2-.1.4 0-.1 0-.3.1-.4zm0-4.7c-.1-.2-.2-.4-.2-.6 0 .2.1.4.2.6zm.3 3v.2c0 .2 0 .5-.1.7 0-.1 0-.2 0-.2s0-.5.1-.7zm.3-.9c0-.2 0-.4-.1-.5-.1-.6-.3-1.2-.6-1.8 0 0 0 0 0-.1.1.2.1.4.2.6 0-.2-.1-.4-.2-.6.4 1 .6 2 .6 3.1.1-.2.1-.4.1-.7zm.4-1.3c0 .2.1.5.1.7s.1.6.1.9v.1c0-.3 0-.6 0-.9s0-.3-.1-.5z" fill="url(#a)"/><g fill="#696c74"><path d="m61.2 3.5h4.5c1.8 0 3.6.8 3.6 2.9 0 1.2-.8 2.3-2 2.5 1.4.1 2.5 1.4 2.5 2.8 0 2.5-2.2 3.3-4.4 3.3h-4.2zm2.1 4.7h1.9c1.4 0 2.1-.6 2.1-1.5s-.7-1.4-2.3-1.4h-1.7zm0 5.1h1.9c1.1 0 2.5-.2 2.5-1.7 0-1.2-.8-1.6-2.5-1.6h-2z"/><path d="m76.7 3.2c3.2-.2 5.9 2.2 6.2 5.3v.8c.1 3.3-2.4 6-5.7 6.1-.2 0-.3 0-.5 0-3.2.2-5.9-2.3-6.1-5.5 0-.2 0-.3 0-.5-.2-3.2 2.2-6 5.4-6.2zm0 10.3c2.2 0 4-1.8 4-4 0-.1 0-.2 0-.3 0-2.2-1.8-4-4-4s-4 1.8-4 4c-.2 2.2 1.5 4.1 3.7 4.3z"/><path d="m84.2 3.5h4.6c3 0 5.9 1.9 5.9 5.8s-3.4 5.8-6.1 5.8h-4.3zm3.6 9.7c2.6 0 4.7-1.1 4.7-3.9s-1.8-3.9-4.4-3.9h-1.9v7.9h1.6z"/><path d="m98.5 10.1-4.4-6.6h2.6l2.8 4.6 2.9-4.6h2.5l-4.4 6.6v5h-2.1z"/><path d="m20.7 3.5h2l3.9 9.1 4-9.1h2v11.6h-1.3v-9.7l-4.2 9.7h-.8l-4.2-9.7v9.7h-1.4z"/><path d="m34.5 3.5h1.4v11.6h-1.4z"/><path d="m37.8 3.5h1.7l6.7 9.6v-9.6h1.4v11.6h-1.7l-6.7-9.6v9.6h-1.4z"/><path d="m49.7 3.5h4.4c3.1-.1 5.6 2.3 5.7 5.4v.4c.1 3.1-2.3 5.7-5.3 5.8-.1 0-.3 0-.4 0h-4.4zm1.4 10.3h2.6c2.7 0 4.7-1.3 4.7-4.5s-2-4.5-4.7-4.5h-2.6z"/></g></svg>